# xmcd CD database file
#
# Track frame offsets:
#	150
#	27196
#	43489
#	70799
#	96494
#	115211
#	138463
#	166425
#	200404
#	222059
#	253083
#
# Disc length: 3712 seconds
#
# Revision: 0
# Processed by: cddbd v1.5.1PL0 Copyright (c) Steve Scherf et al.
# Submitted via: CDex 1.51
#
DISCID=a60e7e0b
DTITLE=Phil Thornton and Hossam Ramzy - Enchanted Egypt
DYEAR=2005
DGENRE=New Age
TTITLE0=Apostle Of The Interface
TTITLE1=On The Desert Road To Alexandria
TTITLE2=Zaiellas
TTITLE3=Enchanted Egypt 1
TTITLE4=Enchanted Egypt 2
TTITLE5=Ali Mama
TTITLE6=From Memphis To Heliopolis
TTITLE7=Nefertari's Dream
TTITLE8=At The Temple Of Rameses The Great
TTITLE9=El Fanadaan
TTITLE10=On The Transit Of Venus
EXTD=YEAR: 2005
EXTT0=
EXTT1=
EXTT2=
EXTT3=
EXTT4=
EXTT5=
EXTT6=
EXTT7=
EXTT8=
EXTT9=
EXTT10=
PLAYORDER=
